P2
#kom
11 11#kom
20
#kom
0 0 4 6 8 10 12#Kom 
14 16 18 20
2 4 6 8 10 12 14 #Kom
16 18 20 18#Kom
4 6 8 10 12 14 16 18 20 18 16
6 8 10 12 14 16 18 20 18 16 14
#kom
8 10 12 14 16 18 20 18 16 14 12
10 12 14 16 18 20 18 16 14 12 10
12 14 16 18 20 18 16 14 12 10 8 #Kom
14 16 18 20 18 16 14 12 10 8 6
16 18 20 18 16 14 12 10 8 6 4
18 20 18 16 14 12 10 8 6 4 2
20 18 16 14 12 10 8 6 4 2 0